# xmcd CD database file
#
# Track frame offsets:
#	182
#	25005
#	36305
#	49975
#	65892
#	84912
#	98170
#	109957
#	135415
#	146660
#	172235
#	194217
#	225787
#	242905
#
# Disc length: 3482 seconds
#
# Revision: 0
# Processed by: cddbd v1.4PL0 Copyright (c) Steve Scherf et al.
# Submitted via: CDex 1.50beta10
#
DISCID=c90d980e
DTITLE=Dick Hyman - Face The Music
DYEAR=1988
DGENRE=Jazz
TTITLE0=Lady of the Evening
TTITLE1=Let's Face the Music and Dance
TTITLE2=The Night Is Filled With Music
TTITLE3=Soft Lights and Sweet Music
TTITLE4=Supper Time
TTITLE5=Easter Parade
TTITLE6=Remember
TTITLE7=The Best Thing For You Is Me
TTITLE8=Always
TTITLE9=I've Got My Love To Keep Me Warm
TTITLE10=How About Me?
TTITLE11=Russian Lullaby
TTITLE12=Cheeck To Cheeck
TTITLE13=I'll See You in CUBA
EXTD=YEAR: 1988
EXTT0=
EXTT1=
EXTT2=
EXTT3=
EXTT4=
EXTT5=
EXTT6=
EXTT7=
EXTT8=
EXTT9=
EXTT10=
EXTT11=
EXTT12=
EXTT13=
PLAYORDER=
